<?xml version="1.0" encoding="utf-8"?>
<!-- Generator: Adobe Illustrator 28.1.0, SVG Export Plug-In . SVG Version: 6.00 Build 0)  -->
<svg version="1.1" xmlns="http://www.w3.org/2000/svg" xmlns:xlink="http://www.w3.org/1999/xlink" x="0px" y="0px"
	 viewBox="0 0 590 42" style="enable-background:new 0 0 590 42;" xml:space="preserve">
<style type="text/css">
	.st0{fill:#FFFFFF;}
	.st1{fill:#AD9970;}
	.st2{fill:none;}
</style>
<g id="NTH-50_LOGO">
	<g id="LOGO">
		<g id="NTH-">
			<path class="st0" d="M195.5,0.69h12.16l17.27,28.23h0.11V0.69H234v40.62h-11.7l-17.73-28.92h-0.12v28.92h-8.95V0.69z"/>
			<path class="st0" d="M245.53,8.61h-11.59V0.69h32.13v7.92h-11.59v32.7h-8.95V8.61z"/>
			<path class="st0" d="M271.18,0.69h8.95v15.15h17.39V0.69h8.95v40.62h-8.95V23.75h-17.39v17.56h-8.95V0.69z"/>
			<path class="st0" d="M326.72,25.58H312.6V18.7h14.11V25.58z"/>
		</g>
		<g id="_x35_0">
			<path class="st1" d="M364.32,21c0-2.41,0.22-4.86,0.66-7.34c0.44-2.49,1.22-4.74,2.35-6.77c1.13-2.03,2.67-3.68,4.62-4.96
				C373.9,0.64,376.39,0,379.41,0c3.02,0,5.51,0.64,7.46,1.92s3.49,2.94,4.62,4.96c1.13,2.03,1.91,4.28,2.35,6.77
				c0.44,2.49,0.66,4.93,0.66,7.34s-0.22,4.86-0.66,7.34s-1.22,4.74-2.35,6.77c-1.13,2.03-2.67,3.68-4.62,4.96
				c-1.95,1.28-4.44,1.92-7.46,1.92c-3.02,0-5.51-0.64-7.46-1.92c-1.95-1.28-3.49-2.94-4.62-4.96c-1.13-2.03-1.91-4.28-2.35-6.77
				C364.54,25.86,364.32,23.41,364.32,21z M372.93,21c0,1.07,0.05,2.35,0.14,3.84c0.1,1.49,0.35,2.93,0.77,4.3
				c0.42,1.38,1.06,2.54,1.92,3.5c0.86,0.96,2.07,1.43,3.64,1.43c1.53,0,2.73-0.48,3.61-1.43c0.88-0.96,1.53-2.12,1.95-3.5
				c0.42-1.38,0.68-2.81,0.77-4.3c0.1-1.49,0.14-2.77,0.14-3.84c0-1.07-0.05-2.35-0.14-3.84c-0.1-1.49-0.35-2.93-0.77-4.3
				c-0.42-1.38-1.07-2.54-1.95-3.5c-0.88-0.96-2.09-1.43-3.61-1.43c-1.57,0-2.78,0.48-3.64,1.43c-0.86,0.96-1.5,2.12-1.92,3.5
				c-0.42,1.38-0.68,2.81-0.77,4.3C372.97,18.65,372.93,19.93,372.93,21z"/>
			<path class="st1" d="M359.28,8.27h-16.12l-0.17,6.25c0.88-0.31,2.09-0.46,3.61-0.46c2.07,0,3.96,0.31,5.68,0.92
				c1.72,0.61,3.2,1.5,4.44,2.67c1.24,1.17,2.21,2.58,2.9,4.25c0.69,1.66,1.03,3.53,1.03,5.59c0,2.29-0.39,4.34-1.18,6.14
				c-0.78,1.8-1.86,3.32-3.24,4.56c-1.38,1.24-3.01,2.19-4.91,2.84c-1.89,0.65-3.95,0.98-6.17,0.98c-3.52,0-6.46-0.86-8.83-2.58
				c-2.37-1.72-4-4.32-4.88-7.8l9-2.07c0.23,1.45,0.84,2.63,1.84,3.53c0.99,0.9,2.24,1.35,3.72,1.35c1.84,0,3.3-0.57,4.39-1.72
				c1.09-1.15,1.64-2.6,1.64-4.36c0-1.34-0.28-2.44-0.84-3.3c-0.55-0.86-1.28-1.55-2.18-2.07c-0.9-0.52-1.9-0.87-3.01-1.06
				c-1.11-0.19-2.22-0.29-3.32-0.29c-1.42,0-2.84,0.14-4.28,0.4c-1.43,0.27-2.82,0.63-4.16,1.09l0.46-22.43h24.55V8.27z"/>
		</g>
	</g>
</g>
<g id="Invisible_Box">
	<rect id="Invisible_Box_00000175324164340804784560000017564059106984422328_" class="st2" width="590" height="42"/>
</g>
</svg>
