<?xml version="1.0" encoding="utf-8"?>
<!-- Generator: Adobe Illustrator 27.9.0, SVG Export Plug-In . SVG Version: 6.00 Build 0)  -->
<svg version="1.1" xmlns="http://www.w3.org/2000/svg" xmlns:xlink="http://www.w3.org/1999/xlink" x="0px" y="0px"
	 viewBox="0 0 737.67 58" style="enable-background:new 0 0 737.67 58;" xml:space="preserve">
<style type="text/css">
	.st0{fill:#FFFFFF;}
	.st1{fill:#AD9970;}
	.st2{fill:none;}
</style>
<g id="RODECASTER_VIDEO_LOGO">
	<g id="LOGO_GROUP">
		<g id="RODE">
			<path class="st0" d="M46.62,18.95c0-10.12-10.11-16.44-19.44-16.44H0v54.07h16.28V30.33L28.76,56.1l0.16,0.47h18.49l-12.8-22.76
				C42.04,31.6,46.62,25.91,46.62,18.95z M16.28,10.26h4.74c5.21,0,8.85,3.64,8.85,8.85c0,7.59-4.27,9.01-11.85,9.01h-1.74V10.26z"
				/>
			<polygon class="st0" points="185.68,47.88 185.68,33.02 203.38,33.02 203.38,24.33 185.68,24.33 185.68,11.05 204.33,11.05 
				204.33,2.35 169.41,2.35 169.41,56.42 205.28,56.42 205.28,47.88 			"/>
			<path class="st0" d="M136.06,2.35H112.2v54.07h26.39c16.12,0,26.55-10.28,26.55-26.08C165.14,14.21,152.97,2.35,136.06,2.35z
				 M148.23,28.28c0,9.96-3.95,20.71-15.17,20.71h-5.37V9.78h4.9C143.49,9.78,148.23,19.11,148.23,28.28z"/>
			<path class="st0" d="M106.51,6.15l-4.58-4.58L96.4,7.1C91.5,3.3,85.18,0.93,78.38,0.93c-16.12,0-28.76,12.49-28.76,28.46
				c0,6.96,2.37,13.12,6.32,18.02l-5.53,5.53l4.58,4.58l5.53-5.53C65.42,55.79,71.59,58,78.38,58c16.12,0,28.76-12.49,28.76-28.46
				c0-6.8-2.37-12.96-6.16-17.86L106.51,6.15z M78.38,8.04c5.06,0,7.9,3.32,9.64,7.43L67,36.5c-0.32-2.69-0.47-5.22-0.47-7.11
				C66.37,23.06,67.64,8.04,78.38,8.04z M89.76,22.75c0.32,2.53,0.47,5.06,0.47,6.8c0,6.48-1.11,21.34-11.85,21.34
				c-4.9,0-7.9-3.16-9.48-7.11L89.76,22.75z"/>
		</g>
		<path id="TM" class="st0" d="M725.79,1.05h-1.98V0h5.21v1.05h-1.98v5.53h-1.25V1.05z M730.28,0h1.9l1.77,5.05H734L735.77,0h1.9
			v6.58h-1.25V1.09h-0.03l-1.91,5.49h-1.01l-1.92-5.49h-0.03v5.49h-1.25V0z"/>
		<g id="CASTER">
			<path class="st0" d="M262.96,47.83c-2.61,3.53-5.63,6.07-9.06,7.6c-3.43,1.54-7.14,2.3-11.13,2.3c-4.15,0-7.95-0.7-11.4-2.11
				s-6.41-3.38-8.87-5.91c-2.46-2.53-4.38-5.55-5.76-9.06c-1.38-3.51-2.07-7.33-2.07-11.48c0-4.15,0.69-7.96,2.07-11.44
				c1.38-3.48,3.3-6.49,5.76-9.02c2.46-2.53,5.41-4.52,8.87-5.95c3.45-1.43,7.25-2.15,11.4-2.15c3.68,0,7.13,0.65,10.33,1.96
				c3.2,1.31,6,3.49,8.41,6.57l-4.15,3.46c-1.69-2.56-3.85-4.43-6.49-5.61c-2.64-1.18-5.34-1.77-8.1-1.77
				c-3.53,0-6.72,0.61-9.56,1.84c-2.84,1.23-5.26,2.92-7.25,5.07c-2,2.15-3.53,4.68-4.61,7.6c-1.07,2.92-1.61,6.07-1.61,9.45
				s0.54,6.53,1.61,9.45c1.07,2.92,2.61,5.45,4.61,7.6c2,2.15,4.41,3.84,7.25,5.07c2.84,1.23,6.03,1.84,9.56,1.84
				c1.38,0,2.81-0.17,4.3-0.5c1.48-0.33,2.93-0.84,4.34-1.54c1.41-0.69,2.75-1.56,4.03-2.61c1.28-1.05,2.4-2.32,3.38-3.8
				L262.96,47.83z"/>
			<path class="st0" d="M288.9,1.98h5.22L317,56.35h-5.68l-5.91-14.44h-28.79l-6.14,14.44h-5.3L288.9,1.98z M291.28,7.51
				l-12.67,29.8h24.95L291.28,7.51z"/>
			<path class="st0" d="M326.29,46.29c1.33,2.3,3.06,4.02,5.18,5.15c2.12,1.13,4.54,1.69,7.25,1.69c1.69,0,3.27-0.26,4.76-0.77
				c1.48-0.51,2.78-1.23,3.88-2.15c1.1-0.92,1.97-2.03,2.61-3.34c0.64-1.31,0.96-2.78,0.96-4.42c0-1.89-0.4-3.46-1.19-4.68
				c-0.79-1.23-1.86-2.24-3.19-3.03c-1.33-0.79-2.83-1.47-4.49-2.03c-1.66-0.56-3.38-1.13-5.14-1.69c-1.77-0.56-3.48-1.2-5.14-1.92
				c-1.66-0.72-3.16-1.65-4.49-2.8c-1.33-1.15-2.39-2.6-3.19-4.34c-0.79-1.74-1.19-3.89-1.19-6.45c0-2.41,0.47-4.54,1.42-6.41
				c0.95-1.87,2.23-3.43,3.84-4.68c1.61-1.25,3.47-2.2,5.57-2.84c2.1-0.64,4.3-0.96,6.6-0.96c2.97,0,5.72,0.53,8.25,1.57
				c2.53,1.05,4.72,2.8,6.56,5.26l-4.38,3.15c-1.28-1.79-2.78-3.14-4.49-4.03c-1.72-0.9-3.75-1.34-6.1-1.34
				c-1.64,0-3.2,0.22-4.68,0.65c-1.48,0.44-2.78,1.07-3.88,1.92c-1.1,0.84-1.98,1.91-2.65,3.19c-0.67,1.28-1,2.79-1,4.53
				c0,2.71,0.69,4.8,2.07,6.26c1.38,1.46,3.11,2.61,5.18,3.46c2.07,0.84,4.32,1.59,6.76,2.23c2.43,0.64,4.68,1.5,6.76,2.57
				c2.07,1.08,3.8,2.57,5.18,4.49c1.38,1.92,2.07,4.57,2.07,7.95c0,2.46-0.46,4.63-1.38,6.53c-0.92,1.89-2.16,3.49-3.72,4.8
				c-1.56,1.31-3.37,2.29-5.41,2.96c-2.05,0.66-4.17,1-6.37,1c-3.58,0-6.88-0.63-9.9-1.88c-3.02-1.25-5.6-3.37-7.75-6.33
				L326.29,46.29z"/>
			<path class="st0" d="M379.56,6.59h-18.58V1.98h42.22v4.61h-18.58v49.76h-5.07V6.59z"/>
			<path class="st0" d="M411.57,1.98h33.24v4.61h-28.17v19.35h26.41v4.61h-26.41v21.19h29.4v4.61h-34.47V1.98z"/>
			<path class="st0" d="M453.64,1.98h14.28c0.72,0,1.69,0.03,2.92,0.08c1.23,0.05,2.56,0.21,3.99,0.46
				c1.43,0.26,2.89,0.67,4.38,1.23c1.48,0.56,2.81,1.38,3.99,2.46c1.18,1.08,2.15,2.43,2.92,4.07c0.77,1.64,1.15,3.64,1.15,5.99
				c0,2.61-0.45,4.76-1.34,6.45c-0.9,1.69-2.02,3.06-3.38,4.11c-1.36,1.05-2.85,1.83-4.49,2.34c-1.64,0.51-3.2,0.87-4.68,1.07
				l15.81,26.11h-5.76l-15.28-25.8h-9.44v25.8h-5.07V1.98z M458.71,25.94h10.75c2.66,0,4.82-0.33,6.49-1
				c1.66-0.66,2.95-1.48,3.88-2.46c0.92-0.97,1.55-2.02,1.88-3.15c0.33-1.13,0.5-2.15,0.5-3.07c0-0.92-0.17-1.94-0.5-3.07
				c-0.33-1.13-0.96-2.18-1.88-3.15c-0.92-0.97-2.21-1.79-3.88-2.46c-1.66-0.66-3.83-1-6.49-1h-10.75V25.94z"/>
		</g>
		<g id="VIDEO">
			<path class="st1" d="M494.72,1.98h5.45l17.5,47.69l17.66-47.69h5.37l-20.65,54.37h-5.07L494.72,1.98z"/>
			<path class="st1" d="M547.91,1.98h5.07v54.37h-5.07V1.98z"/>
			<path class="st1" d="M567.18,1.98h16.81c4.71,0,8.7,0.58,11.97,1.73c3.27,1.15,6,2.62,8.18,4.42c2.17,1.79,3.89,3.78,5.14,5.95
				c1.25,2.18,2.17,4.26,2.76,6.26c0.59,2,0.96,3.8,1.11,5.41c0.15,1.61,0.23,2.75,0.23,3.42c0,0.67-0.08,1.8-0.23,3.42
				c-0.15,1.61-0.53,3.42-1.11,5.41c-0.59,2-1.51,4.08-2.76,6.26c-1.25,2.18-2.97,4.16-5.14,5.95c-2.18,1.79-4.9,3.26-8.18,4.42
				c-3.28,1.15-7.27,1.73-11.97,1.73h-16.81V1.98z M572.25,51.74h10.44c3.58,0,6.93-0.45,10.06-1.34c3.12-0.89,5.83-2.27,8.14-4.11
				c2.3-1.84,4.12-4.18,5.45-7.03c1.33-2.84,2-6.21,2-10.1c0-3.89-0.67-7.26-2-10.1c-1.33-2.84-3.15-5.18-5.45-7.03
				c-2.3-1.84-5.02-3.21-8.14-4.11c-3.12-0.9-6.47-1.34-10.06-1.34h-10.44V51.74z"/>
			<path class="st1" d="M624.75,1.98h33.24v4.61h-28.17v19.35h26.41v4.61h-26.41v21.19h29.4v4.61h-34.47V1.98z"/>
		</g>
		<g id="PLAY_ICON">
			<path class="st1" d="M688.83,15.67c-1.36-0.79-2.47-0.14-2.47,1.43v24.12c0,1.57,1.11,2.21,2.47,1.43l7.97-4.6l4.95-2.86
				l7.99-4.61c1.36-0.79,1.36-2.07,0-2.86l-7.97-4.6l-4.95-2.86L688.83,15.67z"/>
			<path class="st1" d="M695.25,0.6c-15.77,0-28.56,12.79-28.56,28.57s12.78,28.57,28.56,28.57c15.77,0,28.56-12.79,28.56-28.57
				S711.02,0.6,695.25,0.6z M695.25,53.45c-13.41,0-24.27-10.87-24.27-24.28s10.87-24.28,24.27-24.28s24.27,10.87,24.27,24.28
				S708.66,53.45,695.25,53.45L695.25,53.45z"/>
		</g>
	</g>
</g>
<g id="INVISIBLE_BOX">
	<rect id="INVISIBLE_BOX_00000085954187623760315830000017080818744168052360_" class="st2" width="737.67" height="58"/>
</g>
</svg>
