<?xml version="1.0" encoding="UTF-8"?>
<svg id="Layer_1" xmlns="http://www.w3.org/2000/svg" version="1.1" viewBox="0 0 590 58">
  <!-- Generator: Adobe Illustrator 29.1.0, SVG Export Plug-In . SVG Version: 2.1.0 Build 142)  -->
  <defs>
    <style>
      .st0 {
        fill: none;
      }

      .st1 {
        fill: #ad9970;
      }

      .st2 {
        fill: #fff;
      }
    </style>
  </defs>
  <rect id="WHITE_GO_BG" class="st2" x="376.3" y="6.6" width="86" height="45.2"/>
  <g id="LOGO_TAG">
    <g id="LOGO">
      <path id="TM" class="st2" d="M473.5,1.1h-2V0h5.2v1.1h-2v5.6h-1.2V1.1h0ZM478,0h1.9l1.8,5.1h0L483.6,0h1.9v6.6h-1.2V1.1h0l-1.9,5.5h-1l-1.9-5.5h0v5.5h-1.2V0Z"/>
      <g id="WIRELESS">
        <path class="st2" d="M104.5,10.2h9l6,24.1h.1l7.9-24.1h7.7l7.8,24.8h.1l6.3-24.8h8.4l-11,37.6h-7.4l-8.3-26h-.1l-8.3,26h-7.1l-11.2-37.6h0Z"/>
        <path class="st2" d="M161.5,10.2h8.3v37.6h-8.3V10.2Z"/>
        <path class="st2" d="M177.4,10.2h14.6c1.9,0,3.7.2,5.4.6,1.7.4,3.2,1,4.5,1.9,1.3.9,2.3,2,3.1,3.5s1.1,3.3,1.1,5.5-.7,4.9-2.1,6.8-3.4,3-6.1,3.5l9.6,15.9h-9.9l-7.9-15h-4.1v15h-8.3V10.2h0ZM185.7,25.8h4.9c.7,0,1.5,0,2.4,0,.8,0,1.6-.2,2.3-.5s1.2-.7,1.7-1.2c.4-.6.7-1.4.7-2.4s-.2-1.7-.6-2.3c-.4-.6-.9-1-1.5-1.3s-1.3-.5-2.1-.6c-.8-.1-1.5-.2-2.3-.2h-5.4v8.6h0Z"/>
        <path class="st2" d="M212.1,10.2h25.6v7.7h-17.3v7h16.3v7.7h-16.3v7.7h18.2v7.7h-26.5V10.2Z"/>
        <path class="st2" d="M245.6,10.2h8.3v30h15.4v7.7h-23.7V10.2Z"/>
        <path class="st2" d="M274.2,10.2h25.6v7.7h-17.3v7h16.3v7.7h-16.3v7.7h18.2v7.7h-26.5V10.2Z"/>
        <path class="st2" d="M326,19.4c-.7-.9-1.6-1.5-2.7-1.9s-2.2-.6-3.3-.6-1.2,0-1.9.2c-.6.1-1.2.4-1.8.7s-1,.7-1.4,1.2-.5,1.1-.5,1.8c0,1.1.4,2,1.3,2.6.9.6,1.9,1.1,3.2,1.5,1.3.4,2.7.9,4.2,1.3,1.5.4,2.9,1,4.2,1.8,1.3.8,2.4,1.8,3.2,3.1.9,1.3,1.3,3.1,1.3,5.3s-.4,3.9-1.2,5.5-1.8,2.8-3.2,3.9c-1.3,1-2.9,1.8-4.6,2.3-1.8.5-3.6.7-5.6.7s-4.7-.4-6.8-1.1c-2.1-.7-4-2-5.9-3.6l5.9-6.5c.9,1.1,1.9,2,3.2,2.6,1.3.6,2.6.9,4,.9s1.4,0,2-.2,1.3-.4,1.9-.7,1-.7,1.3-1.2c.3-.5.5-1.1.5-1.8,0-1.1-.4-2-1.3-2.7s-2-1.2-3.3-1.7-2.7-.9-4.2-1.4-2.9-1.1-4.2-1.9-2.4-1.8-3.3-3.1c-.9-1.3-1.3-3-1.3-5s.4-3.8,1.2-5.3c.8-1.5,1.9-2.8,3.2-3.8,1.3-1,2.9-1.8,4.6-2.3,1.7-.5,3.5-.8,5.4-.8s4.2.3,6.2.9c2,.6,3.8,1.6,5.4,3l-5.7,6.2h0Z"/>
        <path class="st2" d="M356.5,19.4c-.7-.9-1.6-1.5-2.7-1.9s-2.2-.6-3.3-.6-1.2,0-1.9.2c-.6.1-1.2.4-1.8.7s-1,.7-1.4,1.2-.5,1.1-.5,1.8c0,1.1.4,2,1.3,2.6.9.6,1.9,1.1,3.2,1.5,1.3.4,2.7.9,4.2,1.3,1.5.4,2.9,1,4.2,1.8,1.3.8,2.4,1.8,3.2,3.1.9,1.3,1.3,3.1,1.3,5.3s-.4,3.9-1.2,5.5-1.8,2.8-3.2,3.9c-1.3,1-2.9,1.8-4.6,2.3-1.8.5-3.6.7-5.6.7s-4.7-.4-6.8-1.1c-2.1-.7-4-2-5.9-3.6l5.9-6.5c.9,1.1,1.9,2,3.2,2.6,1.3.6,2.6.9,4,.9s1.4,0,2-.2,1.3-.4,1.9-.7,1-.7,1.3-1.2c.3-.5.5-1.1.5-1.8,0-1.1-.4-2-1.3-2.7s-2-1.2-3.3-1.7-2.7-.9-4.2-1.4-2.9-1.1-4.2-1.9-2.4-1.8-3.3-3.1c-.9-1.3-1.3-3-1.3-5s.4-3.8,1.2-5.3c.8-1.5,1.9-2.8,3.2-3.8,1.3-1,2.9-1.8,4.6-2.3,1.7-.5,3.5-.8,5.4-.8s4.2.3,6.2.9c2,.6,3.8,1.6,5.4,3l-5.7,6.2h0Z"/>
      </g>
      <path id="GO" class="st1" d="M451.2,24.2c.5,1.5.8,3.1.8,4.8s-.3,3.4-.8,4.9c-.5,1.5-1.3,2.8-2.4,3.8s-2.3,1.9-3.7,2.5c-1.4.6-3,.9-4.8.9s-3.4-.3-4.8-.9c-1.4-.6-2.7-1.4-3.7-2.5-1-1.1-1.8-2.4-2.4-3.8s-.8-3.1-.8-4.9.3-3.4.8-4.8c.5-1.5,1.3-2.8,2.4-3.9s2.3-1.9,3.7-2.5c1.4-.6,3-.9,4.8-.9s3.4.3,4.8.9c1.4.6,2.7,1.4,3.7,2.5,1,1.1,1.8,2.4,2.4,3.9ZM468.3,12.2v33.6c0,6.7-5.5,12.2-12.2,12.2h-72.9c-6.7,0-12.2-5.5-12.2-12.2V12.2C371,5.5,376.5,0,383.2,0h72.9c6.7,0,12.2,5.5,12.2,12.2ZM414.7,25.5h-14.7v7.7h6.8v6.1c-.8.4-1.8.8-3.1,1.2-1.3.4-2.9.6-4.7.6s-3.4-.3-4.8-.9c-1.4-.6-2.7-1.4-3.7-2.5-1-1.1-1.8-2.4-2.4-3.8s-.8-3.1-.8-4.9.3-3.4.8-4.8c.5-1.5,1.3-2.8,2.4-3.9s2.3-1.9,3.7-2.5c1.4-.6,3-.9,4.8-.9s3.9.3,5.3.9,2.7,1.5,3.8,2.7l5.9-6.4c-1.9-1.8-4.1-3-6.7-3.8s-5.3-1.1-8.3-1.1-5.6.5-8.1,1.4c-2.5.9-4.6,2.2-6.4,4-1.8,1.7-3.2,3.8-4.2,6.2s-1.5,5.2-1.5,8.2.5,5.7,1.5,8.2,2.4,4.5,4.2,6.2,4,3,6.4,4,5.2,1.4,8.1,1.4,5.5-.3,8.1-.8c2.7-.6,5.2-1.5,7.7-2.8v-19.7h0ZM460.6,29c0-3-.5-5.7-1.5-8.2s-2.4-4.5-4.2-6.2c-1.8-1.7-4-3-6.4-4-2.5-.9-5.2-1.4-8.1-1.4s-5.6.5-8.1,1.4c-2.5.9-4.6,2.2-6.4,4-1.8,1.7-3.2,3.8-4.2,6.2s-1.5,5.2-1.5,8.2.5,5.7,1.5,8.2,2.4,4.5,4.2,6.2,4,3,6.4,4,5.2,1.4,8.1,1.4,5.6-.5,8.1-1.4c2.5-.9,4.6-2.2,6.4-4,1.8-1.7,3.2-3.8,4.2-6.2s1.5-5.2,1.5-8.2Z"/>
    </g>
  </g>
  <g id="INVISIBLE_BOX">
    <rect id="Invisible_Box" class="st0" y="0" width="590" height="58"/>
  </g>
</svg>