<?xml version="1.0" encoding="UTF-8"?>
<svg id="Layer_1" xmlns="http://www.w3.org/2000/svg" version="1.1" viewBox="0 0 590 58">
  <!-- Generator: Adobe Illustrator 29.0.0, SVG Export Plug-In . SVG Version: 2.1.0 Build 186)  -->
  <defs>
    <style>
      .st0 {
        fill: none;
      }

      .st1 {
        fill: #ad9970;
      }

      .st2 {
        fill: #fff;
      }

      .st3 {
        fill: #272525;
      }
    </style>
  </defs>
  <path id="WHITE_BG" class="st2" d="M350.3,2.2h155.8c8,0,14.5,6.2,14.5,13.9v25.9c0,7.7-6.5,13.9-14.5,13.9h-155.8c-8,0-14.5-6.2-14.5-13.9v-25.9c0-7.7,6.5-13.9,14.5-13.9Z"/>
  <g id="Wireless_Micro">
    <g id="Wireless_Micro-2">
      <g id="Wireless">
        <path class="st3" d="M66.3,10.2h9l6,24.1h0l7.9-24.1h7.7l7.8,24.8h0l6.3-24.8h8.4l-11,37.6h-7.4l-8.2-26h0l-8.3,26.1h-7.1l-11.2-37.7h0Z"/>
        <path class="st3" d="M123.3,10.2h8.3v37.6h-8.3V10.2Z"/>
        <path class="st3" d="M139.2,10.2h14.6c1.9,0,3.7.2,5.4.6,1.7.4,3.2,1,4.5,1.9s2.3,2,3.1,3.5c.8,1.5,1.1,3.3,1.1,5.5s-.7,4.9-2.1,6.8c-1.4,1.9-3.4,3-6.1,3.5l9.6,15.9h-9.9l-7.9-15h-4.1v15h-8.3V10.2h0ZM147.5,25.8h4.9c.7,0,1.5,0,2.4-.1.8-.1,1.6-.2,2.3-.5s1.2-.7,1.7-1.2c.4-.6.7-1.4.7-2.4s-.2-1.7-.6-2.3c-.4-.6-.9-1-1.5-1.3s-1.3-.5-2.1-.6-1.5-.2-2.3-.2h-5.4v8.6h0Z"/>
        <path class="st3" d="M173.9,10.2h25.6v7.7h-17.3v7h16.3v7.7h-16.3v7.7h18.2v7.7h-26.5V10.2Z"/>
        <path class="st3" d="M207.4,10.2h8.3v30h15.4v7.7h-23.7V10.2Z"/>
        <path class="st3" d="M236,10.2h25.6v7.7h-17.3v7h16.3v7.7h-16.3v7.7h18.2v7.7h-26.5V10.2Z"/>
        <path class="st3" d="M287.8,19.4c-.7-.9-1.6-1.5-2.7-1.9-1.2-.4-2.2-.6-3.3-.6s-1.2.1-1.9.2c-.6.1-1.2.4-1.8.7-.6.3-1,.7-1.4,1.2s-.5,1.1-.5,1.8c0,1.1.4,2,1.3,2.6s1.9,1.1,3.2,1.5c1.3.4,2.7.9,4.2,1.3s2.9,1,4.2,1.8c1.3.8,2.4,1.8,3.2,3.1.9,1.3,1.3,3.1,1.3,5.3s-.4,3.9-1.2,5.5c-.8,1.6-1.8,2.9-3.2,3.9-1.3,1-2.9,1.8-4.6,2.3-1.8.5-3.6.7-5.6.7s-4.7-.4-6.8-1.1c-2.1-.7-4-1.9-5.8-3.6l5.9-6.5c.9,1.1,1.9,2,3.2,2.6,1.3.6,2.6.9,4,.9s1.4,0,2-.2c.7-.2,1.3-.4,1.9-.7.5-.3,1-.7,1.3-1.2s.5-1.1.5-1.8c0-1.1-.4-2-1.3-2.7s-2-1.2-3.3-1.7-2.7-.9-4.3-1.4c-1.5-.5-2.9-1.1-4.3-1.9-1.3-.8-2.4-1.8-3.3-3.1-.9-1.3-1.3-3-1.3-5.1s.4-3.8,1.2-5.3c.8-1.5,1.9-2.8,3.2-3.8,1.3-1,2.9-1.8,4.6-2.3s3.5-.8,5.4-.8,4.2.3,6.2.9c2,.6,3.8,1.6,5.4,3l-5.6,6.4h0Z"/>
        <path class="st3" d="M318.3,19.4c-.7-.9-1.6-1.5-2.7-1.9-1.2-.4-2.2-.6-3.3-.6s-1.2.1-1.9.2c-.6.1-1.2.4-1.8.7-.6.3-1,.7-1.4,1.2s-.5,1.1-.5,1.8c0,1.1.4,2,1.3,2.6s1.9,1.1,3.2,1.5c1.3.4,2.7.9,4.2,1.3s2.9,1,4.2,1.8c1.3.8,2.4,1.8,3.2,3.1.9,1.3,1.3,3.1,1.3,5.3s-.4,3.9-1.2,5.5c-.8,1.6-1.8,2.9-3.2,3.9-1.3,1-2.9,1.8-4.6,2.3-1.8.5-3.6.7-5.6.7s-4.7-.4-6.8-1.1c-2.1-.7-4-1.9-5.8-3.6l5.9-6.5c.9,1.1,1.9,2,3.2,2.6,1.3.6,2.6.9,4,.9s1.4,0,2-.2c.7-.2,1.3-.4,1.9-.7.5-.3,1-.7,1.3-1.2s.5-1.1.5-1.8c0-1.1-.4-2-1.3-2.7s-2-1.2-3.3-1.7-2.7-.9-4.3-1.4c-1.5-.5-2.9-1.1-4.3-1.9-1.3-.8-2.4-1.8-3.3-3.1-.9-1.3-1.3-3-1.3-5.1s.4-3.8,1.2-5.3c.8-1.5,1.9-2.8,3.2-3.8,1.3-1,2.9-1.8,4.6-2.3s3.5-.8,5.4-.8,4.2.3,6.2.9c2,.6,3.8,1.6,5.4,3l-5.6,6.4h0Z"/>
      </g>
      <g id="Micro">
        <path class="st1" d="M504.2,20.3c-1-1.1-2.3-1.9-3.7-2.5-1.4-.6-3-.9-4.8-.9s-3.4.3-4.8.9-2.7,1.4-3.7,2.5-1.8,2.4-2.4,3.9-.8,3.1-.8,4.8.3,3.4.8,4.9,1.3,2.8,2.4,3.8c1,1.1,2.3,1.9,3.7,2.5,1.4.6,3,.9,4.8.9s3.4-.3,4.8-.9c1.4-.6,2.7-1.4,3.7-2.5s1.8-2.4,2.4-3.8c.5-1.5.8-3.1.8-4.9s-.3-3.4-.8-4.8c-.6-1.6-1.4-2.8-2.4-3.9Z"/>
        <path class="st1" d="M461,17.9c-.6-.3-1.3-.5-2.1-.6-.8-.1-1.5-.2-2.3-.2h-5.4v8.6h4.9c.7,0,1.5,0,2.4-.1.8-.1,1.6-.2,2.3-.5.7-.3,1.2-.7,1.7-1.3.4-.6.7-1.4.7-2.4s-.2-1.7-.6-2.3c-.5-.4-1-.9-1.6-1.2Z"/>
        <path class="st1" d="M511.5,0h-166.5C338.3,0,332.8,5.5,332.8,12.2v33.6c0,6.7,5.5,12.2,12.2,12.2h166.5c6.7,0,12.2-5.5,12.2-12.2V12.2C523.7,5.5,518.2,0,511.5,0ZM383,47.8h-8.3v-28.9h-.1l-9.9,28.9h-6.3l-9.5-28.9h-.1v28.9h-8.3V10.1h12.5l8.7,24.6h.1l8.7-24.6h12.5v37.7h0ZM398.9,47.8h-8.3V10.1h8.3s0,37.7,0,37.7ZM432.3,47.2c-2.4,1.1-5,1.6-7.6,1.6s-5.7-.5-8.1-1.4c-2.5-.9-4.6-2.2-6.4-4-1.8-1.7-3.2-3.8-4.2-6.3-1-2.4-1.5-5.2-1.5-8.2s.5-5.7,1.5-8.2c1-2.4,2.4-4.5,4.2-6.3,1.8-1.7,4-3,6.4-4,2.5-.9,5.2-1.4,8.1-1.4s2.2,0,3.3.3c1.2.2,2.3.5,3.4.9s2.2,1,3.2,1.7,2,1.6,2.8,2.6l-6.4,5.2c-.8-1-1.8-1.8-3-2.3s-2.6-.8-4.1-.8-3,.3-4.3.9-2.5,1.4-3.5,2.5-1.7,2.4-2.3,3.9c-.6,1.5-.8,3.1-.8,4.8s.3,3.4.8,4.9,1.3,2.8,2.3,3.8c1,1.1,2.1,1.9,3.4,2.5s2.7.9,4.2.9,3.2-.4,4.5-1.1c1.3-.7,2.4-1.7,3.2-3l6.9,5.2c-1.5,2.6-3.5,4.2-6,5.3ZM463.2,47.8l-7.9-15.1h-4.1v15.1h-8.3V10.1h14.6c1.9,0,3.7.2,5.5.6,1.7.4,3.2,1,4.5,1.9s2.3,2,3.1,3.5c.8,1.5,1.1,3.3,1.1,5.5s-.7,4.9-2.1,6.8c-1.4,1.9-3.4,3-6.1,3.5l9.6,15.9h-9.9ZM514.5,37.2c-1,2.4-2.4,4.5-4.2,6.3-1.8,1.7-4,3-6.4,4-2.5.9-5.2,1.4-8.1,1.4s-5.7-.5-8.1-1.4c-2.5-.9-4.6-2.2-6.4-4-1.8-1.7-3.2-3.8-4.2-6.3-1-2.4-1.5-5.2-1.5-8.2s.5-5.7,1.5-8.2,2.4-4.5,4.2-6.3c1.8-1.7,4-3,6.4-4,2.5-.9,5.2-1.4,8.1-1.4s5.7.5,8.1,1.4c2.5.9,4.6,2.2,6.4,4,1.8,1.7,3.2,3.8,4.2,6.3,1,2.4,1.5,5.2,1.5,8.2s-.5,5.7-1.5,8.2Z"/>
      </g>
    </g>
  </g>
  <g id="Invisible_Box">
    <rect id="Invisible_Box-2" class="st0" y="0" width="590" height="58"/>
  </g>
</svg>